<?xml version="1.0" standalone="no"?>
<!DOCTYPE svg PUBLIC "-//W3C//DTD SVG 20010904//EN"
 "http://www.w3.org/TR/2001/REC-SVG-20010904/DTD/svg10.dtd">
<svg version="1.0" xmlns="http://www.w3.org/2000/svg"
 width="368.000000pt" height="368.000000pt" viewBox="0 0 368.000000 368.000000"
 preserveAspectRatio="xMidYMid meet">
<metadata>
Created by potrace 1.11, written by Peter Selinger 2001-2013
</metadata>
<g transform="translate(0.000000,368.000000) scale(0.100000,-0.100000)"
fill="#000000" stroke="none">
<path d="M40 3495 l0 -91 62 -13 c103 -21 193 -71 261 -145 72 -78 170 -258
257 -476 23 -58 49 -121 57 -140 28 -64 40 -93 123 -295 45 -110 88 -213 95
-230 40 -89 75 -179 75 -191 0 -8 5 -14 10 -14 6 0 10 -6 10 -12 0 -7 168
-418 374 -913 l373 -899 79 -1 79 0 63 155 c34 85 71 175 82 200 10 25 44 106
74 180 30 74 128 313 217 530 183 449 238 583 281 690 16 41 36 89 43 105 18
40 104 252 239 585 37 91 76 184 87 207 10 24 19 45 19 48 0 4 8 25 19 48 10
23 35 85 57 137 54 135 109 237 161 297 62 74 175 126 320 149 21 3 40 8 43
11 10 9 5 163 -5 166 -5 2 -251 3 -545 3 l-535 -1 -3 -86 -3 -86 58 -2 c118
-4 194 -24 237 -60 53 -45 71 -169 40 -283 -7 -27 -10 -48 -7 -48 3 0 1 -6 -4
-12 -6 -7 -13 -26 -17 -43 -4 -16 -39 -109 -78 -205 -39 -96 -79 -197 -90
-225 -10 -27 -23 -59 -28 -70 -5 -11 -48 -117 -96 -235 -47 -118 -92 -228 -99
-245 -7 -16 -99 -244 -205 -505 -105 -261 -195 -484 -200 -495 -5 -11 -23 -55
-41 -98 l-32 -79 -23 59 c-13 32 -80 202 -149 378 -69 176 -130 329 -135 340
-4 11 -71 180 -148 375 -76 195 -143 364 -147 375 -5 11 -9 22 -10 25 -1 3 -7
19 -14 35 -7 17 -24 59 -37 95 -14 36 -30 74 -35 85 -5 11 -43 108 -85 215
-85 216 -112 305 -120 397 -15 155 87 219 353 222 l51 1 0 88 0 87 -704 0
-704 0 0 -90z"/>
</g>
</svg>
